<svg height="512" viewBox="0 0 512 512" width="512" xmlns="http://www.w3.org/2000/svg"><g><g><path d="m128 120h368v368h-368z" fill="#a0815c"/><g><path d="m128 255.73-16 16.27-16 16h-80v40h112z" fill="#ffc477"/><path d="m296 360a16 16 0 0 1 -16 16h-32a16 16 0 0 1 0 32h-16a16 16 0 0 1 0 32h-120l-16-16h-80v-96h80l16-16 37.34-37.97a16 16 0 1 1 22.63 22.63l-14.55 15.34h90.58a16 16 0 0 1 0 32h32a15.979 15.979 0 0 1 16 16z" fill="#ffdaaa"/><g fill="#ff9811"><path d="m256 208v72l56-32 56 32v-160h-24"/><path d="m360 400h104v56h-104z"/></g></g><circle cx="256" cy="120" fill="#91cc04" r="88"/></g><g><path d="m496 112h-144.34a95.993 95.993 0 0 0 -191.32 0h-32.34a8 8 0 0 0 -8 8v132.46l-27.31 27.54h-76.69a8 8 0 0 0 -8 8v136a8 8 0 0 0 8 8h76.69l13.65 13.66a8.008 8.008 0 0 0 5.66 2.34h8v40a8 8 0 0 0 8 8h368a8 8 0 0 0 8-8v-368a8 8 0 0 0 -8-8zm-136 16v138.21l-44.03-25.16a8.03 8.03 0 0 0 -7.94 0l-44.03 25.16v-50.55a96.139 96.139 0 0 0 87.66-87.66zm-104-88a80 80 0 1 1 -80 80 80.093 80.093 0 0 1 80-80zm-232 256h72a8.008 8.008 0 0 0 5.66-2.34l18.34-18.39v17.19l-27.31 27.54h-68.69zm91.31 136-13.65-13.66a8.008 8.008 0 0 0 -5.66-2.34h-72v-80h72a8.008 8.008 0 0 0 5.66-2.34l53.34-53.97a8 8 0 0 1 11.31 0 7.979 7.979 0 0 1 .01 11.3c-.05.06-.1.11-.15.16l-14.55 15.34a8 8 0 0 0 5.8 13.51h90.58a8 8 0 0 1 0 16h-64a8 8 0 0 0 0 16h96a7.989 7.989 0 0 1 8 8 8.011 8.011 0 0 1 -8 8h-96a8 8 0 0 0 0 16h64a8 8 0 0 1 0 16h-64a8 8 0 0 0 0 16h48a8 8 0 0 1 0 16zm372.69 48h-352v-32h96a23.994 23.994 0 0 0 22.31-32.84 24.012 24.012 0 0 0 16.32-31.16h9.37a24 24 0 1 0 0-48h-9.37a24.006 24.006 0 0 0 -22.63-32h-71.97l1.67-1.76a24 24 0 0 0 -34.06-33.82l-7.64 7.77v-148.19h24.34a96.139 96.139 0 0 0 87.66 87.66v64.34a8 8 0 0 0 11.97 6.95l52.03-29.74 52.03 29.74a8 8 0 0 0 11.97-6.95v-152h112z"/><path d="m360 392a8 8 0 0 0 -8 8v56a8 8 0 0 0 8 8h104a8 8 0 0 0 8-8v-56a8 8 0 0 0 -8-8zm96 56h-88v-40h88z"/><path d="m211.2 134.4 32 24a8 8 0 0 0 10.821-1.132l56-64a8 8 0 1 0 -12.042-10.536l-51.114 58.416-26.065-19.548a8 8 0 1 0 -9.6 12.8z"/></g></g></svg>